<svg xmlns="http://www.w3.org/2000/svg" viewBox="0 0 48 48" width="48" height="48">
  <rect width="48" height="48" rx="11" fill="#0C2942"/>
  <rect x="2.5" y="2.5" width="43" height="43" rx="9.5" fill="none" stroke="#C79F35" stroke-width="1.4" opacity="0.85"/>
  <path d="M11 25.5c0-4.1 2.7-7.2 6.1-7.2 2.4 0 4.2 1.4 5.2 3.4M36.9 25.5c0-4.1-2.7-7.2-6.1-7.2-2.4 0-4.2 1.4-5.2 3.4"
        stroke="#FFFFFF" stroke-width="2.1" stroke-linecap="round" fill="none"/>
  <circle cx="24" cy="17.4" r="4.15" fill="#C79F35"/>
  <circle cx="24" cy="17.4" r="6.4" stroke="#C79F35" stroke-width="0.85" opacity="0.4" fill="none"/>
  <path d="M12 30.5c2.6 0 2.6 2 5.2 2s2.6-2 5.2-2 2.6 2 5.2 2 2.6-2 5.2-2"
        stroke="#4FB4B1" stroke-width="1.9" stroke-linecap="round" fill="none"/>
  <path d="M12 35.2c2.6 0 2.6 2 5.2 2s2.6-2 5.2-2 2.6 2 5.2 2 2.6-2 5.2-2"
        stroke="#4FB4B1" stroke-width="1.9" stroke-linecap="round" opacity="0.6" fill="none"/>
</svg>
